<mxfile host="65bd71144e">
    <diagram id="TadUA5OTynd0SfXIiHl0" name="Page-1">
        <mxGraphModel dx="1508" dy="539" grid="1" gridSize="10" guides="1" tooltips="1" connect="1" arrows="1" fold="1" page="1" pageScale="1" pageWidth="1169" pageHeight="827" background="#ffffff" math="0" shadow="0">
            <root>
                <mxCell id="0"/>
                <mxCell id="1" parent="0"/>
                <mxCell id="8" value="AWS Cloud" style="swimlane;whiteSpace=wrap;html=1;" parent="1" vertex="1">
                    <mxGeometry x="160" y="190" width="740" height="260" as="geometry"/>
                </mxCell>
                <mxCell id="57" value="" style="rounded=0;whiteSpace=wrap;html=1;" vertex="1" parent="8">
                    <mxGeometry x="20" y="50" width="450" height="180" as="geometry"/>
                </mxCell>
                <mxCell id="17" style="edgeStyle=none;html=1;" parent="8" source="34" edge="1">
                    <mxGeometry relative="1" as="geometry">
                        <mxPoint x="160" y="170" as="sourcePoint"/>
                        <mxPoint x="350" y="130" as="targetPoint"/>
                    </mxGeometry>
                </mxCell>
                <mxCell id="18" value="API requests" style="edgeLabel;html=1;align=center;verticalAlign=middle;resizable=0;points=[];" parent="17" vertex="1" connectable="0">
                    <mxGeometry x="-0.1045" y="-2" relative="1" as="geometry">
                        <mxPoint as="offset"/>
                    </mxGeometry>
                </mxCell>
                <mxCell id="22" style="edgeStyle=none;html=1;entryX=0;entryY=0.5;entryDx=0;entryDy=0;entryPerimeter=0;exitX=1;exitY=0.5;exitDx=0;exitDy=0;" parent="8" source="32" target="11" edge="1">
                    <mxGeometry relative="1" as="geometry">
                        <mxPoint x="440" y="140" as="sourcePoint"/>
                    </mxGeometry>
                </mxCell>
                <mxCell id="23" value="Data Stroage&lt;div&gt;and Logs&lt;/div&gt;" style="edgeLabel;html=1;align=center;verticalAlign=middle;resizable=0;points=[];" parent="22" vertex="1" connectable="0">
                    <mxGeometry x="-0.2459" y="1" relative="1" as="geometry">
                        <mxPoint x="50" as="offset"/>
                    </mxGeometry>
                </mxCell>
                <mxCell id="37" value="" style="group" parent="8" vertex="1" connectable="0">
                    <mxGeometry x="100" y="90" width="80" height="110" as="geometry"/>
                </mxCell>
                <mxCell id="34" value="" style="sketch=0;points=[[0,0,0],[0.25,0,0],[0.5,0,0],[0.75,0,0],[1,0,0],[0,1,0],[0.25,1,0],[0.5,1,0],[0.75,1,0],[1,1,0],[0,0.25,0],[0,0.5,0],[0,0.75,0],[1,0.25,0],[1,0.5,0],[1,0.75,0]];outlineConnect=0;fontColor=#232F3E;fillColor=#8C4FFF;strokeColor=#ffffff;dashed=0;verticalLabelPosition=bottom;verticalAlign=top;align=center;html=1;fontSize=12;fontStyle=0;aspect=fixed;shape=mxgraph.aws4.resourceIcon;resIcon=mxgraph.aws4.api_gateway;" parent="37" vertex="1">
                    <mxGeometry width="78" height="78" as="geometry"/>
                </mxCell>
                <mxCell id="35" value="&lt;span style=&quot;color: rgb(0, 0, 0); font-family: Helvetica; font-size: 12px; font-style: normal; font-variant-ligatures: normal; font-variant-caps: normal; font-weight: 400; letter-spacing: normal; orphans: 2; text-align: center; text-indent: 0px; text-transform: none; widows: 2; word-spacing: 0px; -webkit-text-stroke-width: 0px; white-space: normal; background-color: rgb(251, 251, 251); text-decoration-thickness: initial; text-decoration-style: initial; text-decoration-color: initial; display: inline !important; float: none;&quot;&gt;API Gateway&lt;/span&gt;" style="text;whiteSpace=wrap;html=1;" parent="37" vertex="1">
                    <mxGeometry y="78" width="80" height="32" as="geometry"/>
                </mxCell>
                <mxCell id="39" value="" style="group" parent="8" vertex="1" connectable="0">
                    <mxGeometry x="580" y="40" width="150" height="130" as="geometry"/>
                </mxCell>
                <mxCell id="11" value="PostgreSQL Database&lt;div&gt;on EC2 Instance&lt;/div&gt;" style="shape=cylinder3;whiteSpace=wrap;html=1;boundedLbl=1;backgroundOutline=1;size=15;" parent="39" vertex="1">
                    <mxGeometry y="50.8695652173913" width="150" height="79.13043478260869" as="geometry"/>
                </mxCell>
                <mxCell id="46" value="&lt;span style=&quot;color: rgb(0, 0, 0);&quot;&gt;Back-end&amp;nbsp;&lt;/span&gt;&lt;span style=&quot;background-color: transparent;&quot;&gt;Services&lt;/span&gt;&lt;div&gt;(Node.js/Express.js)&lt;/div&gt;" style="text;html=1;align=center;verticalAlign=middle;whiteSpace=wrap;rounded=0;" parent="8" vertex="1">
                    <mxGeometry x="304.6212121212121" y="174.25531914893617" width="147.87878787878788" height="17.02127659574468" as="geometry"/>
                </mxCell>
                <mxCell id="49" value="" style="group" parent="8" vertex="1" connectable="0">
                    <mxGeometry x="352.8548484848485" y="104.49170212765958" width="117.14772727272727" height="57.02127659574468" as="geometry"/>
                </mxCell>
                <mxCell id="32" value="" style="image;aspect=fixed;perimeter=ellipsePerimeter;html=1;align=center;shadow=0;dashed=0;fontColor=#4277BB;labelBackgroundColor=default;fontSize=12;spacingTop=3;image=img/lib/ibm/infrastructure/mobile_backend.svg;" parent="49" vertex="1">
                    <mxGeometry width="51.06382978723404" height="51.06382978723404" as="geometry"/>
                </mxCell>
                <mxCell id="58" value="EC2 Instance" style="edgeLabel;html=1;align=center;verticalAlign=middle;resizable=0;points=[];" vertex="1" connectable="0" parent="8">
                    <mxGeometry x="60.00000000000006" y="59.99999999999994" as="geometry"/>
                </mxCell>
                <mxCell id="13" value="" style="endArrow=classic;html=1;edgeStyle=orthogonalEdgeStyle;entryX=0;entryY=0.5;entryDx=0;entryDy=0;entryPerimeter=0;exitX=0.953;exitY=0.616;exitDx=0;exitDy=0;exitPerimeter=0;" parent="1" source="24" target="34" edge="1">
                    <mxGeometry width="50" height="50" relative="1" as="geometry">
                        <mxPoint x="35" y="322.5" as="sourcePoint"/>
                        <mxPoint x="200" y="345" as="targetPoint"/>
                    </mxGeometry>
                </mxCell>
                <mxCell id="14" value="HTTPS API calls" style="edgeLabel;html=1;align=center;verticalAlign=middle;resizable=0;points=[];" parent="13" vertex="1" connectable="0">
                    <mxGeometry x="-0.08" y="-1" relative="1" as="geometry">
                        <mxPoint x="-18" y="-10" as="offset"/>
                    </mxGeometry>
                </mxCell>
                <mxCell id="20" style="edgeStyle=orthogonalEdgeStyle;html=1;exitX=1;exitY=0.5;exitDx=0;exitDy=0;entryX=0.6;entryY=1.005;entryDx=0;entryDy=0;entryPerimeter=0;" parent="1" source="44" edge="1" target="57">
                    <mxGeometry relative="1" as="geometry">
                        <mxPoint x="150" y="665" as="sourcePoint"/>
                        <mxPoint x="550" y="450" as="targetPoint"/>
                    </mxGeometry>
                </mxCell>
                <mxCell id="21" value="Automated Deploy" style="edgeLabel;html=1;align=center;verticalAlign=middle;resizable=0;points=[];" parent="20" vertex="1" connectable="0">
                    <mxGeometry x="-0.1608" y="5" relative="1" as="geometry">
                        <mxPoint x="33" y="-4" as="offset"/>
                    </mxGeometry>
                </mxCell>
                <mxCell id="45" value="" style="group" parent="1" vertex="1" connectable="0">
                    <mxGeometry x="-130" y="460" width="160" height="126" as="geometry"/>
                </mxCell>
                <mxCell id="44" value="" style="rounded=0;whiteSpace=wrap;html=1;" parent="45" vertex="1">
                    <mxGeometry width="160" height="126" as="geometry"/>
                </mxCell>
                <mxCell id="43" value="&lt;span style=&quot;color: rgb(0, 0, 0);&quot;&gt;CI/CD Pipeline&lt;/span&gt;&lt;div&gt;(Gitlab + Docker)&lt;/div&gt;" style="text;html=1;align=center;verticalAlign=middle;whiteSpace=wrap;rounded=0;" parent="45" vertex="1">
                    <mxGeometry y="86" width="160" height="20" as="geometry"/>
                </mxCell>
                <mxCell id="27" value="GitLab" style="shape=rect;fillColor=#EE5396;aspect=fixed;resizable=0;labelPosition=center;verticalLabelPosition=bottom;align=center;verticalAlign=top;strokeColor=none;fontSize=14;" parent="45" vertex="1">
                    <mxGeometry x="20" y="6" width="48" height="48" as="geometry"/>
                </mxCell>
                <mxCell id="28" value="" style="fillColor=#ffffff;strokeColor=none;dashed=0;outlineConnect=0;html=1;labelPosition=center;verticalLabelPosition=bottom;verticalAlign=top;part=1;movable=0;resizable=0;rotatable=0;shape=mxgraph.ibm_cloud.logo--gitlab" parent="27" vertex="1">
                    <mxGeometry width="24" height="24" relative="1" as="geometry">
                        <mxPoint x="12" y="12" as="offset"/>
                    </mxGeometry>
                </mxCell>
                <mxCell id="29" value="" style="image;sketch=0;aspect=fixed;html=1;points=[];align=center;fontSize=12;image=img/lib/mscae/Docker.svg;" parent="45" vertex="1">
                    <mxGeometry x="80" y="16" width="60" height="49.2" as="geometry"/>
                </mxCell>
                <mxCell id="55" value="" style="group" parent="1" vertex="1" connectable="0">
                    <mxGeometry x="-90" y="269" width="80" height="91.99755533935371" as="geometry"/>
                </mxCell>
                <mxCell id="24" value="" style="image;html=1;image=img/lib/clip_art/computers/Monitor_128x128.png" parent="55" vertex="1">
                    <mxGeometry width="80" height="80" as="geometry"/>
                </mxCell>
                <mxCell id="25" value="Client&lt;div&gt;(React.js Web App)&lt;/div&gt;" style="edgeLabel;html=1;align=center;verticalAlign=middle;resizable=0;points=[];" parent="55" vertex="1" connectable="0">
                    <mxGeometry x="39.99649807976357" y="101.99755533935371" as="geometry">
                        <mxPoint x="2" y="-10" as="offset"/>
                    </mxGeometry>
                </mxCell>
            </root>
        </mxGraphModel>
    </diagram>
</mxfile>